<svg width="12" height="12" viewBox="0 0 12 12" fill="none" xmlns="http://www.w3.org/2000/svg">
<path d="M1.53422 4.56023C2.22656 4.81523 3.09375 4.98 4.03125 5.03906C4.7775 3.52734 6.33516 2.48438 8.13281 2.48438C8.61094 2.4841 9.08613 2.55908 9.54094 2.70656C9.40031 2.34211 9.01031 1.92492 8.07516 1.58156C7.19531 1.25648 6.03469 1.07812 4.80469 1.07812C3.57469 1.07812 2.41406 1.25648 1.53422 1.58039C0.26625 2.0475 0 2.64844 0 3.07031C0 3.49219 0.26625 4.09313 1.53422 4.56023Z" fill="white"/>
<path d="M1.53422 7.4899C2.13117 7.70975 2.8582 7.86256 3.64852 7.93803C3.50377 7.2019 3.54216 6.44147 3.76031 5.72365C2.84086 5.64842 1.98797 5.47686 1.29117 5.21998C0.754922 5.0224 0.322734 4.78123 0 4.49811V5.99998C0 6.42186 0.26625 7.0228 1.53422 7.4899Z" fill="white"/>
<path d="M3.85406 8.66061C2.89898 8.59029 2.01164 8.41522 1.29117 8.14967C0.754922 7.95209 0.322734 7.71092 0 7.4278V8.92967C0 9.35155 0.26625 9.95248 1.53422 10.4196C2.41406 10.7435 3.57469 10.9219 4.80469 10.9219C5.0925 10.9219 5.37656 10.912 5.6543 10.8928C4.8314 10.3599 4.20057 9.57771 3.85406 8.66061Z" fill="white"/>
<path d="M8.13281 3.1875C6 3.1875 4.26562 4.92188 4.26562 7.05469C4.26562 9.1875 6 10.9219 8.13281 10.9219C10.2656 10.9219 12 9.1875 12 7.05469C12 4.92188 10.2656 3.1875 8.13281 3.1875ZM7.84687 6.70312H8.41875C8.7126 6.70654 8.99375 6.82349 9.20333 7.02949C9.41291 7.2355 9.53468 7.51458 9.54316 7.80833C9.55164 8.10208 9.44617 8.38773 9.24882 8.60548C9.05147 8.82323 8.77754 8.9562 8.48438 8.97656V9.16406C8.48438 9.2573 8.44734 9.34672 8.3814 9.41265C8.31547 9.47859 8.22605 9.51562 8.13281 9.51562C8.03957 9.51562 7.95015 9.47859 7.88422 9.41265C7.81829 9.34672 7.78125 9.2573 7.78125 9.16406V8.97937H7.06031C6.96707 8.97937 6.87765 8.94234 6.81172 8.8764C6.74579 8.81047 6.70875 8.72105 6.70875 8.62781C6.70875 8.53457 6.74579 8.44515 6.81172 8.37922C6.87765 8.31329 6.96707 8.27625 7.06031 8.27625H8.41969C8.53506 8.27625 8.6457 8.23042 8.72728 8.14884C8.80886 8.06726 8.85469 7.95662 8.85469 7.84125C8.85469 7.72588 8.80886 7.61524 8.72728 7.53366C8.6457 7.45208 8.53506 7.40625 8.41969 7.40625H7.84687C7.55302 7.40283 7.27188 7.28588 7.0623 7.07988C6.85272 6.87388 6.73094 6.59479 6.72246 6.30104C6.71398 6.00729 6.81946 5.72165 7.01681 5.5039C7.21416 5.28615 7.48808 5.15318 7.78125 5.13281V4.94531C7.78125 4.85207 7.81829 4.76265 7.88422 4.69672C7.95015 4.63079 8.03957 4.59375 8.13281 4.59375C8.22605 4.59375 8.31547 4.63079 8.3814 4.69672C8.44734 4.76265 8.48438 4.85207 8.48438 4.94531V5.13H9.20531C9.29855 5.13 9.38797 5.16704 9.45391 5.23297C9.51984 5.2989 9.55688 5.38832 9.55688 5.48156C9.55688 5.5748 9.51984 5.66422 9.45391 5.73015C9.38797 5.79609 9.29855 5.83313 9.20531 5.83313H7.84594C7.73057 5.83313 7.61992 5.87896 7.53835 5.96053C7.45677 6.04211 7.41094 6.15276 7.41094 6.26813C7.41094 6.38349 7.45677 6.49414 7.53835 6.57572C7.61992 6.65729 7.73057 6.70312 7.84594 6.70312H7.84687Z" fill="white"/>
</svg>
