<svg width="8" height="14" viewBox="0 0 8 14" fill="none" xmlns="http://www.w3.org/2000/svg">
<path d="M6.80469 12.0712C6.53469 12.1762 5.67969 12.4262 5.28969 12.2037C5.23587 12.1725 5.19046 12.1286 5.15736 12.0759C5.12426 12.0232 5.10447 11.9633 5.09969 11.9012C4.97719 11.1212 5.55969 9.31874 5.87469 8.35123C5.97969 8.02873 6.05469 7.79374 6.08469 7.65124C6.31219 6.59874 6.19969 5.79374 5.74969 5.25874C5.20829 4.61506 4.24764 4.48983 3.45969 4.60623C2.65842 4.71303 1.87541 4.92834 1.13219 5.24624C1.09766 5.26294 1.06748 5.28744 1.04405 5.31781C1.02062 5.34819 1.00458 5.38359 0.99719 5.42124L0.83469 6.19874C0.825911 6.24246 0.828926 6.28774 0.843424 6.32991C0.857922 6.37209 0.883382 6.40965 0.91719 6.43874C0.951431 6.46718 0.992453 6.48627 1.03626 6.49416C1.08007 6.50205 1.12518 6.49845 1.16719 6.48374C1.46469 6.37374 2.39469 6.12624 2.72719 6.43124C2.91469 6.60374 2.86219 6.96874 2.7872 7.24124C2.7097 7.52624 2.61719 7.83374 2.5222 8.15624C1.9072 10.2487 1.2072 12.6212 2.3172 13.3612C2.84238 13.7622 3.4816 13.9855 4.1422 13.9987C4.7922 13.9987 5.5947 13.7937 6.7497 13.3262C6.78451 13.3127 6.81583 13.2915 6.84136 13.2643C6.86689 13.237 6.88597 13.2044 6.8972 13.1687L7.1347 12.3762C7.14815 12.3311 7.14873 12.283 7.13636 12.2375C7.12399 12.192 7.09918 12.1509 7.0647 12.1187C7.03022 12.0872 6.98753 12.0659 6.94154 12.0575C6.89554 12.0491 6.84811 12.0539 6.80469 12.0712Z" fill="white"/>
<path d="M5.3597 0.00123596C5.00207 0.0014832 4.65254 0.107743 4.35528 0.306586C4.05803 0.505429 3.82639 0.78793 3.68964 1.11838C3.5529 1.44884 3.51719 1.81242 3.58702 2.16316C3.65685 2.51391 3.82909 2.83608 4.08197 3.08896C4.33486 3.34185 4.65703 3.51409 5.00778 3.58392C5.35852 3.65375 5.7221 3.61804 6.05255 3.48129C6.38301 3.34455 6.66551 3.11291 6.86435 2.81565C7.06319 2.5184 7.16945 2.16887 7.1697 1.81124C7.16954 1.33124 6.97879 0.870955 6.63939 0.531549C6.29998 0.192143 5.83969 0.00139566 5.3597 0.00123596Z" fill="white"/>
</svg>
