<svg width="16" height="16" viewBox="0 0 16 16" fill="none" xmlns="http://www.w3.org/2000/svg">
<path d="M4.3294 15.5294H0.941169C0.705875 15.5294 0.470581 15.2941 0.470581 15.0588V11.6235C0.470581 11.3412 0.705875 11.153 0.941169 11.153H4.23529V15.0588C4.23529 15.2 4.28235 15.3882 4.3294 15.5294Z" fill="#141E3C"/>
<path d="M10.8235 9.41178V15.0588C10.8235 15.2941 10.5882 15.5294 10.3529 15.5294H5.64706C5.41176 15.5294 5.17647 15.2941 5.17647 15.0588V9.41178C5.17647 9.12943 5.41176 8.94119 5.64706 8.94119H10.3529C10.5882 8.94119 10.8235 9.12943 10.8235 9.41178Z" fill="#141E3C"/>
<path d="M15.5294 12.2353V15.0588C15.5294 15.2941 15.2941 15.5294 15.0588 15.5294H11.6706C11.7176 15.3882 11.7647 15.2 11.7647 15.0588V11.7647H15.0588C15.2941 11.7647 15.5294 11.9529 15.5294 12.2353Z" fill="#141E3C"/>
<path d="M11.8122 3.76471L10.2592 5.2706L10.6357 7.4353C10.6827 7.62354 10.5886 7.81177 10.4475 7.90589C10.3063 8.00001 10.071 8.00001 9.92981 7.95295L8.00039 6.91765L6.07098 7.90589C5.92981 8.00001 5.74157 8.00001 5.60039 7.85883C5.45922 7.76471 5.3651 7.57648 5.41216 7.38824L5.78863 5.22354L4.18863 3.76471C4.09451 3.6706 4.04745 3.48236 4.09451 3.29413C4.14157 3.10589 4.28275 3.01177 4.47098 2.96471L6.63569 2.6353L7.57686 0.705891C7.71804 0.376479 8.28275 0.376479 8.42392 0.705891L9.3651 2.6353L11.5298 2.96471C11.718 3.01177 11.8592 3.10589 11.9063 3.29413C11.9533 3.48236 11.9063 3.6706 11.8122 3.76471Z" fill="#141E3C"/>
</svg>
