<svg width="20" height="20" viewBox="0 0 20 20" fill="none" xmlns="http://www.w3.org/2000/svg">
<path fill-rule="evenodd" clip-rule="evenodd" d="M15.0003 9.99998C16.8412 9.99998 18.3337 8.50756 18.3337 6.66665C18.3337 4.8257 16.8412 3.33331 15.0003 3.33331C13.4472 3.33331 12.1421 4.39562 11.772 5.83331H2.50033C2.04009 5.83331 1.66699 6.20641 1.66699 6.66665C1.66699 7.12689 2.04009 7.49998 2.50033 7.49998H11.772C12.1421 8.93765 13.4472 9.99998 15.0003 9.99998ZM13.3337 6.66665C13.3337 7.58712 14.0798 8.33331 15.0003 8.33331C15.9208 8.33331 16.667 7.58712 16.667 6.66665C16.667 5.74617 15.9208 4.99998 15.0003 4.99998C14.0798 4.99998 13.3337 5.74617 13.3337 6.66665ZM1.66699 13.3333C1.66699 11.4924 3.15938 9.99998 5.00033 9.99998C6.55353 9.99998 7.85861 11.0623 8.22864 12.5H17.5003C17.9606 12.5 18.3337 12.8731 18.3337 13.3333C18.3337 13.7936 17.9606 14.1666 17.5003 14.1666H8.22864C7.85861 15.6043 6.55353 16.6666 5.00033 16.6666C3.15938 16.6666 1.66699 15.1742 1.66699 13.3333ZM6.66699 13.3333C6.66699 12.4128 5.9208 11.6666 5.00033 11.6666C4.07985 11.6666 3.33366 12.4128 3.33366 13.3333C3.33366 14.2538 4.07985 15 5.00033 15C5.9208 15 6.66699 14.2538 6.66699 13.3333Z" fill="#777AAE"/>
</svg>
