<svg width="12" height="12" viewBox="0 0 12 12" fill="none" xmlns="http://www.w3.org/2000/svg">
<path d="M1.83564 1.41611C1.83531 1.41611 1.83495 1.41611 1.83463 1.41611C1.72113 1.41611 1.61438 1.46035 1.53378 1.54075C1.45228 1.62205 1.40739 1.73029 1.40739 1.84552V8.28453C1.40739 8.52066 1.60024 8.71322 1.83734 8.71383C2.83685 8.71621 4.51145 8.92454 5.66668 10.1335V3.39486C5.66668 3.31482 5.64624 3.23963 5.60765 3.17741C4.65949 1.65045 2.83742 1.41845 1.83564 1.41611Z" fill="white"/>
<path d="M10.5923 8.28454V1.84549C10.5923 1.73026 10.5474 1.62202 10.4659 1.54072C10.3853 1.46032 10.2784 1.41608 10.1651 1.41608C10.1647 1.41608 10.1643 1.41608 10.164 1.41608C9.16227 1.41846 7.3402 1.65046 6.392 3.17742C6.35341 3.23964 6.33301 3.31483 6.33301 3.39487V10.1334C7.48824 8.92451 9.16283 8.71618 10.1624 8.7138C10.3994 8.71319 10.5923 8.52063 10.5923 8.28454Z" fill="white"/>
<path d="M11.5707 2.90106H11.2593V8.28455C11.2593 8.88743 10.7681 9.37902 10.1643 9.38052C9.31652 9.38254 7.91861 9.54832 6.92859 10.4853C8.64084 10.0661 10.4459 10.3386 11.4745 10.573C11.603 10.6023 11.7357 10.5721 11.8386 10.4901C11.9412 10.4082 12 10.2859 12 10.1547V3.3304C12 3.09367 11.8074 2.90106 11.5707 2.90106Z" fill="white"/>
<path d="M0.740689 8.28455V2.90106H0.429335C0.192647 2.90106 0 3.09367 0 3.3304V10.1545C0 10.2859 0.0588285 10.4081 0.161374 10.4899C0.264203 10.5719 0.396809 10.6023 0.525456 10.5729C1.55415 10.3385 3.3592 10.066 5.07137 10.4852C4.08139 9.54824 2.68348 9.3825 1.83568 9.38048C1.23192 9.37902 0.740689 8.88743 0.740689 8.28455Z" fill="white"/>
</svg>
