<svg width="12" height="12" viewBox="0 0 12 12" fill="none" xmlns="http://www.w3.org/2000/svg">
<g clip-path="url(#clip0_23_408)">
<path d="M9.29123 6.28931H10.6974V9.65625H9.29123V6.28931Z" fill="white"/>
<path d="M6.62793 6.28931H8.03418V9.65625H6.62793V6.28931Z" fill="white"/>
<path d="M3.96582 6.28931H5.37207V9.65625H3.96582V6.28931Z" fill="white"/>
<path d="M1.30261 6.28931H2.70877V9.65625H1.30261V6.28931Z" fill="white"/>
<path d="M11.1662 5.23462V4.88306H0.833862V5.23462C0.833862 5.4288 0.991241 5.58618 1.18542 5.58618H10.8147C11.0088 5.58618 11.1662 5.4288 11.1662 5.23462Z" fill="white"/>
<path d="M11.6479 10.3594H0.351562C0.157379 10.3594 0 10.5168 0 10.7109V11.6484C0 11.8426 0.157379 12 0.351562 12H11.6479C11.8421 12 11.9994 11.8426 11.9994 11.6484V10.7109C11.9994 10.5168 11.8421 10.3594 11.6479 10.3594Z" fill="white"/>
<path d="M0.351577 4.17993H11.6484C11.8057 4.17993 11.9439 4.07547 11.9867 3.92413C12.0295 3.77279 11.9667 3.61139 11.8327 3.52899L6.18431 0.052185C6.07133 -0.017395 5.92878 -0.017395 5.81572 0.052185L0.167281 3.52899C0.0333396 3.61148 -0.0294656 3.77279 0.0133811 3.92413C0.0562278 4.07547 0.194381 4.17993 0.351577 4.17993ZM5.76106 2.06781H6.23906C6.43324 2.06781 6.59062 2.22519 6.59062 2.41937C6.59062 2.61355 6.43324 2.77093 6.23906 2.77093H5.76106C5.56687 2.77093 5.4095 2.61355 5.4095 2.41937C5.4095 2.22519 5.56687 2.06781 5.76106 2.06781Z" fill="white"/>
</g>
<defs>
<clipPath id="clip0_23_408">
<rect width="12" height="12" fill="white"/>
</clipPath>
</defs>
</svg>
